<?xml version="1.0" standalone="no"?>
<!DOCTYPE svg PUBLIC "-//W3C//DTD SVG 20010904//EN"
 "http://www.w3.org/TR/2001/REC-SVG-20010904/DTD/svg10.dtd">
<svg version="1.0" xmlns="http://www.w3.org/2000/svg"
 width="205.000000pt" height="205.000000pt" viewBox="0 0 205.000000 205.000000"
 preserveAspectRatio="xMidYMid meet">
<metadata>
Created by potrace 1.14, written by Peter Selinger 2001-2017
</metadata>
<g transform="translate(0.000000,205.000000) scale(0.100000,-0.100000)"
fill="#000000" stroke="none">
<path d="M941 2025 c-52 -24 -106 -81 -128 -133 -38 -91 -3 -225 75 -290 39
-31 40 -33 30 -74 -9 -43 -12 -223 -4 -288 3 -30 -1 -39 -39 -72 -59 -52 -86
-111 -87 -191 -1 -35 2 -69 6 -75 11 -18 -29 -23 -154 -20 l-115 3 0 80 c-1
68 -5 87 -28 130 -85 154 -284 181 -406 55 -122 -126 -76 -337 87 -406 92 -38
228 -5 290 72 l31 39 154 -1 153 -1 51 -51 c58 -58 127 -84 209 -80 l49 3 1
-104 c2 -127 1 -132 -35 -121 -106 30 -243 -40 -288 -149 -23 -55 -21 -158 4
-206 50 -95 123 -140 228 -139 80 0 131 22 181 76 51 53 67 95 67 169 0 82
-27 144 -86 194 l-41 35 3 133 c2 110 5 134 19 145 89 66 116 121 116 230 l0
82 45 1 c47 2 153 2 182 0 14 -1 16 -13 15 -69 -1 -88 23 -149 78 -200 166
-153 426 -39 426 188 0 64 -50 163 -99 195 -62 41 -104 54 -167 51 -74 -3
-129 -30 -181 -90 l-40 -45 -132 0 c-73 0 -135 -2 -138 -5 -4 -3 -19 12 -36
34 -16 22 -50 53 -75 68 -41 23 -58 27 -130 27 -70 0 -83 3 -88 18 -11 36 -4
301 9 313 1 1 21 -1 45 -6 112 -20 222 33 275 134 28 54 30 175 4 224 -66 122
-214 173 -336 117z"/>
</g>
</svg>
